<?xml version="1.0" standalone="no"?>
<!DOCTYPE svg PUBLIC "-//W3C//DTD SVG 20010904//EN"
 "http://www.w3.org/TR/2001/REC-SVG-20010904/DTD/svg10.dtd">
<svg version="1.0" xmlns="http://www.w3.org/2000/svg"
 width="651.000000pt" height="607.000000pt" viewBox="0 0 651.000000 607.000000"
 preserveAspectRatio="xMidYMid meet">
<metadata>
Created by potrace 1.15, written by Peter Selinger 2001-2017
</metadata>
<g transform="translate(0.000000,607.000000) scale(0.100000,-0.100000)"
fill="#000000" stroke="none">
<path d="M2328 5613 c17 -2 47 -2 65 0 17 2 3 4 -33 4 -36 0 -50 -2 -32 -4z"/>
<path d="M2220 5589 c-87 -39 -133 -102 -106 -144 47 -71 177 -5 176 90 l-1
30 -15 -35 c-28 -64 -86 -107 -130 -96 -19 5 -24 13 -24 36 0 40 54 92 122
119 29 11 46 20 38 20 -8 0 -35 -9 -60 -20z"/>
<path d="M2436 5598 c3 -4 0 -8 -6 -8 -26 0 -114 -99 -158 -178 -54 -96 -82
-128 -126 -142 -27 -8 -25 -9 14 -4 25 4 57 12 71 20 45 22 93 88 128 173 48
116 100 164 109 102 8 -56 -36 -120 -85 -122 l-28 -1 30 -7 c54 -11 43 -85
-22 -141 -39 -34 -27 -38 34 -11 70 32 92 110 41 145 -19 14 -18 15 21 36 48
24 68 62 52 97 -6 13 -18 26 -28 30 -15 6 -15 7 3 14 13 4 7 6 -18 6 -20 -1
-35 -5 -32 -9z"/>
<path d="M3061 5528 c-21 -40 -49 -86 -61 -101 -12 -15 -20 -31 -17 -34 4 -3
-7 -32 -23 -64 -17 -32 -30 -61 -30 -64 0 -3 10 -5 23 -5 19 0 35 25 105 165
45 91 82 167 82 170 0 3 -9 5 -20 5 -14 0 -30 -20 -59 -72z"/>
<path d="M4193 5588 c-6 -7 -29 -48 -53 -91 -30 -57 -45 -76 -53 -68 -15 15
-53 14 -85 -3 -15 -8 -54 -43 -87 -78 -33 -34 -46 -50 -29 -35 l32 28 0 -27
c0 -26 24 -54 46 -54 6 0 4 4 -4 10 -12 8 -12 13 2 42 43 90 102 141 123 107
7 -10 -29 -72 -69 -119 l-21 -25 23 19 c19 17 22 17 22 3 0 -9 9 -21 19 -27
26 -14 31 -13 25 5 -3 8 30 81 75 165 45 83 81 152 81 155 0 10 -38 4 -47 -7z"/>
<path d="M3794 5435 c-4 -11 -19 -33 -33 -50 -26 -30 -26 -30 -1 -8 14 12 34
23 45 25 19 3 20 6 8 28 -11 23 -12 23 -19 5z"/>
<path d="M2574 5421 c-68 -42 -99 -127 -55 -151 29 -15 37 -13 78 23 20 17 34
25 31 16 -3 -9 -3 -21 1 -27 17 -28 34 -12 70 68 36 79 38 85 19 88 -10 2 -25
-2 -33 -8 -9 -7 -15 -8 -20 0 -10 16 -57 12 -91 -9z m93 -7 c5 -15 -57 -104
-89 -127 -59 -44 -55 9 9 95 25 35 41 48 56 46 11 -2 22 -8 24 -14z"/>
<path d="M2844 5424 c-17 -8 -48 -34 -70 -57 -21 -22 -31 -35 -21 -28 15 12
17 10 17 -17 0 -21 7 -36 22 -46 28 -20 44 -21 28 -2 -20 25 49 156 83 156 5
0 4 -7 -3 -15 -20 -25 4 -45 27 -23 13 14 14 20 3 32 -16 20 -46 20 -86 0z"/>
<path d="M3120 5421 c0 -22 23 -34 38 -19 15 15 3 38 -19 38 -12 0 -19 -7 -19
-19z"/>
<path d="M3228 5410 c-22 -21 -26 -28 -11 -21 34 17 35 14 13 -29 -23 -45 -25
-71 -8 -88 16 -16 28 -15 28 2 0 8 11 36 25 63 46 86 17 132 -47 73z"/>
<path d="M3361 5398 c-13 -22 -42 -62 -64 -87 -30 -33 -32 -38 -9 -17 35 32
41 29 16 -9 -9 -13 -41 -36 -72 -50 -32 -15 -67 -36 -79 -47 -29 -27 -30 -73
-3 -88 48 -25 114 24 179 133 13 20 26 37 31 37 4 0 30 17 57 39 l49 38 -4
-27 c-3 -22 2 -32 21 -45 23 -15 28 -15 56 -1 16 9 35 24 40 33 9 16 10 14 11
-8 0 -16 7 -30 16 -33 9 -4 17 -5 18 -4 2 5 67 152 73 166 3 8 -4 12 -20 12
-14 0 -27 -6 -30 -12 -3 -10 -7 -10 -20 1 -29 23 -84 5 -141 -48 -70 -64 -118
-103 -123 -98 -2 2 15 39 38 81 l41 76 -29 0 c-22 0 -33 -8 -52 -42z m265 17
c11 -27 -84 -145 -116 -145 -28 0 6 77 58 133 29 30 50 35 58 12z m-365 -214
c-26 -49 -69 -101 -86 -101 -7 0 -18 6 -24 14 -19 22 11 70 61 100 62 37 72
34 49 -13z"/>
<path d="M3811 5375 c-22 -25 -31 -46 -31 -70 0 -19 2 -35 4 -35 2 0 11 -3 20
-6 10 -4 16 -1 16 8 0 8 14 33 31 56 52 71 18 113 -40 47z"/>
<path d="M3085 5389 c-4 -6 -17 -14 -29 -19 -17 -7 -17 -9 -3 -9 20 -1 21 -4
5 -48 -10 -28 -10 -36 2 -43 18 -11 57 9 90 47 l25 28 -25 -21 c-45 -38 -49
-38 -43 1 4 27 2 36 -11 41 -13 5 -14 9 -5 20 6 8 9 14 6 14 -3 0 -9 -5 -12
-11z"/>
<path d="M2925 5338 l-50 -53 53 50 c48 46 57 55 49 55 -1 0 -25 -24 -52 -52z"/>
<path d="M2062 5358 c-18 -18 -15 -53 6 -71 10 -10 22 -17 27 -17 5 0 1 6 -10
13 -19 14 -13 37 9 37 18 0 35 21 29 36 -6 17 -45 18 -61 2z"/>
<path d="M4164 5328 l-29 -33 33 29 c30 28 37 36 29 36 -2 0 -16 -15 -33 -32z"/>
<path d="M2317 5332 c-19 -20 -22 -48 -8 -56 5 -4 7 3 4 13 -3 11 4 28 16 40
12 12 17 21 13 21 -5 0 -16 -8 -25 -18z"/>
<path d="M3114 5021 c-55 -25 -84 -68 -91 -135 -8 -79 19 -128 112 -205 89
-72 106 -96 110 -153 l3 -43 73 0 74 0 3 45 c6 84 -11 116 -124 225 -83 80
-104 107 -104 129 0 25 3 27 33 24 28 -3 32 -7 35 -35 l3 -33 75 0 74 0 0 44
c0 118 -152 193 -276 137z"/>
<path d="M1470 5026 c0 -3 18 -151 40 -330 22 -178 40 -329 40 -335 0 -7 34
-11 94 -11 l95 0 6 43 c8 64 25 219 25 242 1 19 1 19 11 2 6 -10 14 -72 20
-139 5 -66 14 -127 20 -135 9 -10 34 -13 98 -11 l86 3 36 285 c21 157 40 309
44 338 l6 52 -74 0 -75 0 -6 -37 c-3 -21 -11 -100 -17 -177 -11 -141 -26 -217
-29 -146 -1 19 -9 107 -18 195 l-17 160 -72 3 c-86 3 -77 21 -94 -183 -6 -77
-14 -156 -18 -175 l-8 -35 -6 30 c-3 17 -11 86 -17 155 -6 69 -13 144 -16 168
l-5 42 -75 0 c-41 0 -74 -2 -74 -4z"/>
<path d="M2220 4690 c0 -389 -9 -358 95 -319 l55 20 0 135 0 134 34 0 34 0 3
-114 c2 -63 7 -117 10 -120 6 -7 120 17 138 29 8 4 11 98 11 291 l0 284 -75 0
-75 0 0 -120 0 -120 -40 0 -40 0 0 120 0 120 -75 0 -75 0 0 -340z"/>
<path d="M2740 4750 l0 -281 73 3 72 3 3 278 2 277 -75 0 -75 0 0 -280z"/>
<path d="M3530 4751 l0 -280 58 -6 c107 -13 96 -23 102 90 l5 100 25 -105 25
-104 83 -24 c46 -13 86 -22 88 -19 3 3 -13 63 -36 134 -53 162 -54 201 -6 351
20 63 36 120 36 128 0 12 -15 14 -77 12 l-77 -3 -30 -120 -31 -120 -3 123 -3
122 -79 0 -80 0 0 -279z"/>
<path d="M4040 4690 l0 -340 160 0 160 0 0 65 0 65 -80 0 -80 0 0 80 0 80 70
0 70 0 0 65 0 65 -70 0 -70 0 0 65 0 65 75 0 75 0 0 65 0 65 -155 0 -155 0 0
-340z"/>
<path d="M4481 4963 c10 -38 40 -147 65 -243 40 -156 45 -182 39 -242 -4 -37
-4 -80 0 -97 7 -31 7 -31 76 -31 65 0 69 1 75 26 4 14 4 54 0 88 -8 77 7 155
68 373 25 90 46 170 46 178 0 12 -15 15 -73 15 l-74 0 -18 -100 c-9 -55 -20
-100 -24 -100 -9 0 -27 78 -37 153 l-7 47 -78 0 -78 0 20 -67z"/>
<path d="M730 4790 c-72 -17 -106 -96 -73 -169 10 -22 236 -416 503 -875 l485
-834 108 -37 c59 -20 112 -35 117 -33 4 2 -57 116 -137 253 -279 480 -467 802
-633 1085 -171 292 -250 432 -250 443 0 4 117 7 260 7 l260 0 0 85 0 85 -302
-1 c-167 -1 -319 -5 -338 -9z"/>
<path d="M4950 4715 l0 -85 261 0 c298 0 275 11 210 -100 -102 -171 -392 -670
-513 -880 -75 -129 -213 -367 -307 -529 -94 -162 -169 -296 -167 -298 2 -2 54
13 115 33 128 43 110 24 243 259 69 121 385 666 733 1265 173 297 178 312 112
377 l-37 38 -325 3 -325 3 0 -86z"/>
<path d="M3022 4543 l3 -58 73 -3 72 -3 0 61 0 60 -75 0 -76 0 3 -57z"/>
<path d="M994 4536 c-6 -16 -1 -28 66 -141 175 -295 324 -551 438 -750 362
-633 487 -840 515 -853 16 -8 31 -11 34 -8 6 6 -42 91 -298 526 -98 168 -294
505 -433 750 l-255 445 155 3 c146 2 154 4 154 22 0 19 -7 20 -185 20 -151 0
-187 -3 -191 -14z"/>
<path d="M4950 4530 c0 -19 8 -20 154 -22 l155 -3 -86 -150 c-47 -82 -222
-384 -388 -670 -457 -785 -527 -909 -514 -914 17 -5 62 32 83 70 58 104 271
470 414 714 91 154 242 413 335 575 94 162 181 312 194 332 13 21 24 48 26 60
l2 23 -187 3 c-182 2 -188 2 -188 -18z"/>
<path d="M2865 4414 c-22 -2 -89 -9 -150 -14 -228 -22 -361 -65 -389 -125 -14
-28 -16 -97 -16 -497 0 -680 10 -1066 27 -1084 21 -21 57 -19 49 3 -4 10 -10
358 -13 774 -7 857 -13 794 74 823 142 46 470 71 843 63 285 -6 411 -20 531
-56 116 -36 104 53 104 -753 0 -387 -4 -745 -8 -796 l-8 -93 28 3 c27 3 28 6
35 68 3 36 7 391 9 790 3 815 7 768 -71 807 -53 27 -187 57 -320 73 -93 11
-646 22 -725 14z"/>
<path d="M2464 4276 c-47 -21 -50 -34 -10 -51 48 -20 61 -19 62 8 0 12 4 30 8
40 10 21 -15 22 -60 3z"/>
<path d="M3770 4270 c6 -12 10 -31 7 -41 -7 -24 15 -24 68 -1 l40 18 -27 18
c-14 9 -43 20 -63 23 -36 6 -37 5 -25 -17z"/>
<path d="M2532 4205 c3 -3 70 -13 149 -21 265 -30 898 -20 1049 16 22 5 5 6
-45 2 -110 -9 -915 -9 -1049 1 -60 4 -107 5 -104 2z"/>
<path d="M2610 4152 c77 -48 735 -62 990 -21 80 13 94 23 20 15 -129 -14 -660
-18 -820 -6 -91 6 -174 14 -185 16 -16 4 -17 3 -5 -4z"/>
<path d="M2415 4118 c-3 -13 -2 -339 3 -725 l7 -701 23 -25 c21 -22 62 -42 62
-31 0 3 -10 24 -22 47 -19 36 -23 62 -26 187 -3 117 -1 143 9 133 8 -8 16 -60
21 -138 7 -106 12 -130 29 -148 13 -14 19 -31 16 -46 -7 -34 19 -54 119 -90
190 -70 260 -82 490 -88 134 -4 213 -2 217 4 4 6 -25 27 -63 48 -39 21 -78 47
-87 58 -18 19 -17 19 17 4 228 -100 294 -113 126 -26 -136 71 -141 91 -9 31
153 -70 231 -84 114 -22 -34 18 -61 37 -61 41 0 12 -2 13 99 -26 99 -38 150
-47 89 -15 -73 39 -59 52 22 20 63 -25 113 -25 165 -1 59 27 84 60 94 122 12
74 24 1048 14 1134 -7 51 -11 -37 -16 -330 -4 -220 -11 -420 -15 -445 l-8 -45
-8 47 c-5 25 -6 107 -5 181 2 74 1 133 -3 130 -5 -2 -8 -25 -9 -51 0 -26 -4
-69 -9 -97 -6 -41 -8 -27 -10 75 -2 121 -15 131 -20 15 -1 -27 -5 -59 -10 -70
-6 -13 -9 19 -9 90 -2 185 -21 548 -31 585 -7 26 -9 1 -6 -92 2 -88 0 -128 -8
-128 -6 0 -99 9 -207 19 -196 19 -197 19 -274 60 -107 56 -156 53 -270 -17
-46 -27 -62 -31 -195 -41 -80 -7 -173 -15 -206 -20 l-62 -7 -6 59 c-3 33 -6
89 -6 123 0 74 -19 88 -21 17 -1 -27 -5 -61 -9 -78 -5 -18 -8 27 -9 117 0 80
-4 153 -7 162 -9 23 -23 20 -29 -6z m783 -317 c31 -16 68 -38 82 -50 30 -25
22 -26 -83 -10 -95 13 -106 17 -87 29 28 17 -1 23 -56 11 -43 -10 -68 -24
-109 -61 -59 -54 -93 -75 -103 -65 -11 11 106 111 168 144 70 39 114 39 188 2z
m239 -80 c7 -11 27 -22 45 -26 18 -4 42 -12 53 -18 18 -10 17 -12 -20 -29
l-40 -19 35 5 c89 14 220 19 220 8 0 -18 -11 -20 -185 -32 -94 -6 -183 -13
-198 -15 -32 -5 -28 11 7 26 19 9 19 9 -4 4 -60 -13 -210 -18 -210 -7 0 12 31
18 140 27 41 3 90 8 108 12 l32 5 -30 34 c-16 19 -30 37 -30 39 0 3 15 5 33 5
21 0 36 -7 44 -19z m-598 -27 c11 -10 -26 -34 -53 -35 l-31 -1 35 -12 c35 -13
49 -41 20 -41 -57 1 -189 18 -185 25 3 4 21 11 40 14 48 9 44 24 -9 38 -25 6
-42 16 -39 21 4 7 212 -1 222 -9z m-232 -87 l92 -12 -44 -45 c-25 -25 -59 -57
-76 -73 -21 -18 -28 -33 -24 -46 7 -22 -10 -36 -47 -43 l-28 -5 0 89 c0 82 2
89 22 97 20 7 20 8 -10 19 -18 6 -32 16 -32 21 0 14 30 13 147 -2z m1123 -87
l0 -89 -30 6 c-23 4 -34 1 -43 -12 -12 -15 -14 -15 -26 -1 -7 9 -30 20 -51 26
-31 8 -43 20 -73 71 -24 39 -32 62 -24 64 15 6 160 22 210 24 l37 1 0 -90z
m-300 28 c53 -27 106 -103 95 -137 -4 -12 -31 -34 -63 -51 -31 -17 -65 -36
-74 -42 -13 -9 -32 -8 -90 5 -138 32 -183 21 -218 -54 -13 -27 -26 -49 -29
-49 -19 2 -54 32 -91 78 -78 99 -49 31 36 -86 21 -29 10 -41 -16 -17 -24 22
-27 9 -4 -16 15 -17 14 -19 -20 -35 -28 -14 -42 -15 -69 -7 -32 10 -34 9 -29
-9 5 -19 4 -19 -26 -4 -17 9 -38 26 -46 38 -9 12 -16 17 -16 10 0 -22 46 -60
86 -71 22 -6 63 -11 92 -11 28 0 52 -4 52 -8 0 -4 -16 -24 -36 -43 -20 -18
-43 -47 -51 -63 l-15 -29 30 22 c55 39 67 20 31 -50 -34 -68 -104 -81 -214
-39 -23 9 -26 13 -15 20 8 6 22 10 32 10 10 0 27 21 42 52 28 57 33 79 14 76
-7 -2 -15 12 -18 32 l-6 35 -18 -37 c-9 -20 -26 -44 -37 -54 -10 -9 -19 -23
-19 -30 0 -36 -24 -18 -50 38 -17 35 -30 57 -30 50 0 -7 9 -30 20 -52 24 -46
26 -90 6 -90 -25 0 -69 20 -118 53 -38 25 -48 38 -48 60 0 31 6 33 32 10 22
-19 23 -6 3 21 -19 25 -19 53 2 149 13 63 19 74 25 57 4 -12 6 -25 3 -29 -2
-4 -5 -40 -6 -80 -2 -72 -1 -73 35 -109 l37 -37 -21 48 c-18 41 -20 53 -10 82
17 50 30 43 32 -17 1 -45 2 -41 8 27 8 82 -2 168 -21 191 -6 7 -19 16 -30 19
-14 5 -19 16 -19 43 0 48 9 60 47 68 29 6 30 5 37 -37 4 -26 3 -45 -4 -49 -7
-4 -6 -17 3 -41 8 -19 20 -59 27 -89 11 -44 14 -50 21 -33 13 36 26 34 44 -7
26 -57 30 -43 6 19 -17 41 -18 51 -7 51 8 0 25 -14 38 -31 39 -53 85 -99 99
-99 8 0 7 6 -4 18 -9 10 -33 53 -53 96 -19 43 -54 98 -76 122 -23 25 -38 47
-35 50 7 7 45 -12 77 -40 l25 -21 -20 25 c-11 14 -30 37 -44 52 -13 15 -22 30
-20 33 6 6 138 -56 183 -86 18 -12 11 -2 -19 25 -27 25 -44 46 -37 46 7 0 47
-15 88 -34 41 -19 74 -33 74 -31 0 2 -25 20 -55 40 -30 21 -55 39 -55 42 0 9
64 -10 127 -38 34 -15 63 -27 63 -25 0 2 -22 18 -50 37 -27 19 -50 38 -50 43
0 14 61 -2 115 -30 l50 -26 -29 31 c-16 17 -27 34 -23 37 3 3 32 -8 64 -25
l58 -32 -45 46 -44 45 120 0 c104 0 125 -3 164 -22z m-671 -190 c14 -26 22
-50 18 -55 -13 -13 -67 54 -67 83 0 37 19 26 49 -28z m824 -10 l16 -33 -6 34
c-6 36 0 37 39 3 11 -9 31 -13 53 -10 l35 4 0 -58 c0 -54 -1 -58 -24 -58 -13
0 -30 10 -38 22 -14 20 -18 21 -42 10 -60 -27 -113 -3 -102 45 8 32 33 73 44
73 5 0 16 -15 25 -32z m-309 -38 c32 -5 61 -12 64 -14 2 -3 -5 -17 -17 -32
-11 -15 -21 -36 -21 -48 0 -12 -8 -32 -17 -45 -16 -23 -17 -23 -24 -5 -6 17
-8 16 -19 -8 -17 -37 -33 -36 -28 1 2 17 1 28 -4 25 -4 -3 -8 -13 -8 -23 0 -9
-7 -26 -16 -37 -14 -18 -15 -15 -10 34 3 28 3 52 1 52 -2 0 -11 -24 -20 -52
-24 -74 -35 -81 -35 -23 0 45 -1 47 -15 29 -13 -18 -14 -16 -14 21 0 86 36
135 99 135 14 0 51 -4 84 -10z m235 -60 c36 -12 71 -26 78 -32 10 -8 13 -6 13
10 0 31 43 44 54 16 8 -20 -11 -54 -29 -54 -20 0 -19 -14 1 -31 14 -11 18 -10
30 6 8 10 14 25 14 32 0 17 14 16 48 -1 52 -27 66 -52 65 -115 -2 -56 -27
-141 -43 -141 -4 0 -5 24 -4 53 4 48 3 50 -7 22 -51 -134 -128 -282 -136 -258
-2 5 5 31 16 56 11 26 19 47 17 47 -1 0 -17 -23 -35 -50 -45 -70 -90 -102
-143 -102 -45 -1 -118 24 -118 40 0 5 29 12 65 14 36 2 69 8 75 13 6 7 -16 9
-58 7 -51 -3 -81 2 -120 17 -29 12 -68 21 -86 21 -25 0 -38 7 -50 25 -21 32
-20 38 3 25 60 -32 75 -10 122 188 16 70 35 140 41 155 23 60 78 71 187 37z
m-464 -287 c-4 -10 -12 -30 -17 -45 -6 -17 -17 -28 -29 -28 -27 0 -24 36 6 65
28 29 50 33 40 8z m-280 -108 c55 -19 110 -35 123 -35 12 0 25 -7 29 -15 3 -9
35 -37 71 -62 36 -26 59 -49 53 -51 -7 -2 -50 14 -94 36 -45 22 -83 39 -85 38
-1 -2 34 -30 79 -62 45 -32 93 -69 108 -82 26 -23 26 -23 3 -17 -35 10 -117
49 -192 90 -72 40 -53 22 59 -58 46 -33 67 -53 57 -55 -18 -4 -98 32 -163 73
-24 14 -43 24 -43 22 0 -2 28 -26 62 -52 101 -80 31 -67 -101 19 -77 50 -83
61 -96 184 -8 76 -10 76 130 27z m294 -24 c22 -14 -5 -41 -40 -41 -21 0 -29 5
-29 18 0 10 3 22 7 25 9 10 45 8 62 -2z"/>
<path d="M2815 3380 c29 -52 57 -90 66 -90 6 0 -4 19 -22 43 -39 51 -55 68
-44 47z"/>
<path d="M2856 2966 c-12 -25 -15 -41 -8 -48 6 -6 14 2 22 26 17 52 7 66 -14
22z"/>
<path d="M3456 3131 c-4 -7 -5 -15 -2 -18 9 -9 19 4 14 18 -4 11 -6 11 -12 0z"/>
<path d="M3545 3094 c-14 -15 -25 -35 -25 -46 0 -28 28 -78 44 -78 29 0 57 35
63 78 10 71 -35 96 -82 46z m65 -7 c0 -27 -34 -67 -56 -67 -20 0 -30 29 -17
49 10 15 50 41 66 41 4 0 7 -10 7 -23z"/>
<path d="M3447 2972 c-9 -2 -24 -16 -31 -30 -12 -22 -12 -31 -1 -45 19 -26 44
-21 51 11 3 15 8 34 10 44 6 19 -4 26 -29 20z m13 -25 c0 -14 -20 -37 -32 -37
-12 0 -10 24 4 38 16 16 28 15 28 -1z"/>
<path d="M3260 2860 c0 -5 9 -10 19 -10 11 0 23 5 26 10 4 6 -5 10 -19 10 -14
0 -26 -4 -26 -10z"/>
<path d="M1803 3960 c-33 -13 -43 -42 -43 -117 0 -81 11 -101 61 -109 46 -8
79 21 79 67 0 27 -3 30 -27 27 -20 -2 -29 -9 -31 -25 -7 -51 -22 -19 -22 47 0
67 12 93 23 50 4 -14 14 -20 32 -20 26 0 27 2 21 32 -3 18 -10 36 -14 39 -13
13 -57 18 -79 9z"/>
<path d="M4408 3964 c-16 -5 -18 -19 -18 -115 0 -107 0 -109 25 -115 72 -18
137 33 115 92 -6 15 -8 46 -5 69 5 29 3 45 -7 53 -16 13 -85 23 -110 16z m70
-62 c2 -15 -2 -22 -12 -22 -11 0 -16 9 -16 26 0 31 23 28 28 -4z m2 -92 c0
-20 -5 -30 -15 -30 -10 0 -15 10 -15 30 0 20 5 30 15 30 10 0 15 -10 15 -30z"/>
<path d="M1970 3845 l0 -116 57 3 c46 2 59 7 61 21 3 13 -3 17 -27 17 l-31 0
0 95 0 95 -30 0 -30 0 0 -115z"/>
<path d="M4182 3860 c2 -58 8 -104 15 -111 6 -6 30 -12 53 -13 60 -1 70 17 70
131 l0 93 -31 0 -30 0 1 -77 c2 -102 2 -103 -10 -103 -6 0 -10 37 -10 90 l0
90 -31 0 -31 0 4 -100z"/>
<path d="M1338 2889 c-54 -8 -140 -35 -180 -55 -36 -19 -74 -86 -94 -167 -25
-100 -17 -121 79 -216 163 -160 223 -194 472 -265 254 -72 560 -171 558 -181
-3 -14 -98 -43 -166 -51 -45 -5 -69 -13 -87 -30 -18 -16 -45 -26 -91 -33 -49
-7 -73 -16 -94 -35 -15 -14 -46 -31 -69 -37 -63 -16 -84 -34 -91 -76 -4 -21
-14 -62 -23 -91 -14 -48 -14 -56 1 -106 21 -64 46 -99 86 -115 23 -10 30 -21
35 -51 19 -117 78 -142 237 -100 92 24 86 25 93 -5 8 -33 17 -32 69 8 35 27
148 69 571 211 l528 177 77 -20 c42 -11 252 -80 466 -154 215 -74 421 -144
458 -157 37 -12 89 -38 114 -57 44 -34 73 -38 73 -9 0 25 15 26 89 6 39 -11
92 -20 117 -20 62 0 109 44 119 112 6 38 12 48 35 58 39 16 55 36 80 100 l22
55 -23 95 c-12 52 -26 100 -31 107 -5 7 -33 20 -61 29 -29 9 -70 29 -92 45
-27 18 -59 29 -99 34 -40 5 -64 13 -75 26 -11 14 -43 24 -105 35 -49 8 -106
24 -125 34 l-36 18 30 12 c50 19 299 95 510 155 110 32 225 70 255 85 80 40
163 106 259 204 l84 86 -6 60 c-9 79 -39 156 -79 197 -68 71 -253 103 -388 69
-174 -45 -949 -297 -1405 -457 -258 -90 -249 -90 -615 35 -306 106 -1081 358
-1245 405 -116 34 -172 41 -237 30z m152 -70 c107 -17 214 -77 372 -208 41
-34 34 -25 -32 43 -83 86 -84 88 -50 81 19 -4 78 -22 130 -40 52 -18 122 -41
155 -50 88 -25 155 -56 155 -71 0 -7 -9 -38 -21 -68 -14 -39 -30 -61 -52 -75
-18 -11 -50 -38 -72 -60 -21 -23 -43 -41 -47 -41 -5 0 -25 26 -45 57 -46 72
-103 135 -173 188 -70 53 -98 68 -45 24 69 -57 113 -110 170 -201 30 -48 55
-91 55 -95 0 -4 -19 13 -43 37 -41 42 -57 50 -280 129 -130 46 -237 86 -237
89 0 7 150 -4 175 -13 15 -5 16 -4 5 3 -8 5 -82 24 -165 41 -82 18 -157 35
-165 38 -30 12 67 21 150 13 47 -4 86 -7 88 -6 4 4 -230 75 -270 82 -41 7 -75
34 -42 34 11 0 52 -9 93 -20 41 -11 88 -20 105 -19 23 1 17 4 -24 13 -80 18
-127 35 -140 51 -9 11 -4 16 31 25 112 30 137 33 219 19z m3538 -5 c105 -22
113 -27 71 -50 -19 -10 -63 -26 -99 -36 l-65 -17 60 6 c33 3 77 12 99 19 21 8
48 14 60 14 46 -1 -15 -28 -124 -54 -60 -15 -124 -33 -142 -41 -31 -14 -26
-15 73 -9 68 4 113 3 125 -4 22 -12 33 -9 -146 -46 -140 -29 -204 -46 -197
-52 2 -3 24 0 48 5 57 13 152 14 144 1 -3 -5 -111 -43 -240 -85 -226 -74 -236
-78 -272 -119 -48 -54 -70 -69 -52 -35 39 75 110 173 168 233 64 68 65 69 21
39 -50 -34 -101 -87 -172 -181 -29 -37 -55 -62 -67 -62 -10 0 -30 15 -45 34
-14 19 -41 44 -60 56 -26 15 -40 36 -56 77 -11 31 -20 62 -18 70 3 14 424 162
461 163 12 0 -10 -27 -65 -80 l-83 -81 96 74 c115 89 192 134 268 158 70 23
112 23 209 3z m-3774 -123 c6 -9 -84 -45 -92 -37 -7 8 9 27 32 36 28 12 54 12
60 1z m3936 -16 c7 -9 11 -18 8 -20 -5 -5 -98 24 -98 31 0 12 79 2 90 -11z
m-2870 -120 c0 -2 -4 -15 -10 -29 -9 -25 -8 -26 83 -55 l92 -30 9 25 c10 25
39 31 66 14 12 -8 11 -19 -9 -80 -22 -71 -22 -73 -6 -135 24 -86 17 -177 -16
-241 -21 -40 -30 -48 -49 -46 -13 1 -26 4 -28 7 -3 3 5 30 17 61 28 73 28 155
0 222 -20 48 -20 53 -6 96 19 55 16 58 -84 75 -89 15 -87 15 -103 -22 -7 -19
-35 -49 -64 -69 -65 -48 -95 -88 -122 -170 -12 -38 -25 -68 -29 -68 -4 0 -15
6 -26 13 -15 12 -17 22 -11 58 15 91 68 172 151 229 36 25 45 38 55 82 19 82
25 89 60 76 17 -5 30 -11 30 -13z m-1104 -57 c44 -40 110 -97 147 -127 37 -29
65 -56 62 -59 -15 -15 -241 166 -285 229 -35 49 -7 33 76 -43z m2912 3 c19
-57 29 -74 56 -91 80 -49 139 -141 151 -236 7 -47 6 -52 -16 -57 -12 -3 -26
-4 -30 -2 -4 3 -15 34 -24 70 -20 74 -64 132 -125 166 -26 15 -44 35 -54 61
-9 21 -21 38 -28 38 -31 0 -143 -22 -159 -31 -17 -9 -17 -12 -2 -53 16 -42 16
-46 -5 -94 -15 -35 -22 -71 -22 -117 0 -67 -13 -80 -25 -25 -9 40 -25 38 -25
-2 -1 -31 -1 -32 -15 -14 -20 27 -19 62 6 142 l21 68 -23 74 c-20 63 -21 75
-8 83 21 13 59 11 59 -3 1 -37 15 -38 107 -7 l91 30 -8 29 c-9 31 -2 38 36 39
16 1 24 -12 42 -68z m1093 42 c-22 -40 -186 -180 -244 -208 l-32 -16 35 32
c208 191 266 236 241 192z m-3896 -56 c48 -17 146 -82 247 -162 62 -50 105
-77 128 -81 145 -23 270 -61 270 -82 0 -8 -193 37 -342 78 -23 6 -68 39 -122
88 -46 43 -117 95 -156 117 -39 21 -76 45 -82 52 -12 14 -7 14 57 -10z m3716
-23 c-79 -44 -161 -104 -228 -167 -46 -43 -62 -52 -140 -72 -48 -12 -130 -35
-180 -50 -88 -27 -120 -28 -96 -4 14 14 237 79 271 79 18 0 52 20 102 61 138
113 263 189 309 189 21 0 14 -7 -38 -36z m-1265 -69 c15 -48 16 -64 5 -138 -7
-46 -16 -89 -21 -96 -12 -20 -135 -10 -157 12 -15 15 -16 20 -4 40 13 21 13
21 -13 -2 l-26 -24 -60 18 c-36 11 -60 24 -60 32 0 24 89 111 159 155 63 40
138 70 153 61 4 -2 15 -28 24 -58z m-1072 29 c78 -39 147 -95 206 -168 29 -36
55 -66 57 -66 9 0 -36 61 -90 123 -72 82 -67 83 111 22 72 -25 139 -45 150
-45 27 0 121 -63 227 -152 185 -155 185 -155 125 -97 -31 30 -85 81 -120 114
-47 43 -60 61 -48 63 9 2 119 -31 245 -72 125 -41 257 -82 293 -91 35 -9 78
-24 94 -32 38 -20 247 -228 275 -274 26 -42 29 -78 6 -59 -13 11 -15 7 -15
-30 0 -41 -1 -42 -27 -36 -16 4 -81 25 -146 48 -102 35 -120 45 -137 74 -26
41 -171 179 -236 222 -38 26 -23 8 62 -75 61 -59 121 -127 133 -150 24 -48 13
-58 -17 -16 -14 19 -32 28 -68 34 -64 10 -472 150 -516 177 -33 21 -146 134
-226 227 l-43 50 32 -50 c18 -27 61 -84 96 -125 35 -41 59 -76 53 -78 -5 -2
-59 12 -118 32 -59 20 -119 38 -134 41 -21 4 -46 30 -99 100 -39 52 -73 95
-75 95 -2 0 15 -34 37 -75 23 -41 37 -75 32 -75 -4 0 -56 16 -115 36 -115 38
-109 33 -123 114 -17 107 -17 120 0 169 20 61 39 65 119 25z m769 -118 c-39
-43 -70 -70 -73 -63 -3 7 -24 12 -48 13 -29 1 -50 7 -64 21 l-20 21 118 40
c66 22 127 41 137 41 13 1 -2 -21 -50 -73z m-1079 13 c30 -24 50 -60 59 -107
6 -30 5 -32 -13 -22 -10 5 -21 14 -25 19 -3 6 -26 13 -50 17 -25 3 -56 15 -69
25 -37 29 -80 25 -110 -12 -32 -38 -41 -71 -26 -98 11 -22 30 -29 30 -11 0 18
39 10 50 -10 8 -15 21 -20 56 -20 34 0 50 -6 67 -23 12 -13 32 -29 45 -36 26
-14 20 -31 -11 -31 -13 0 -81 20 -152 44 l-130 43 2 47 c3 103 98 196 199 196
37 0 59 -6 78 -21z m1742 -4 c23 -13 56 -45 72 -71 32 -47 52 -129 36 -144
-16 -14 -168 -60 -200 -60 -17 0 -38 7 -45 16 -19 23 13 44 68 44 32 0 45 5
53 20 12 22 40 26 58 8 18 -18 34 35 21 70 -26 68 -86 92 -135 53 -13 -10 -41
-22 -61 -26 -21 -4 -53 -16 -72 -27 l-33 -21 7 34 c25 118 128 164 231 104z
m-1836 -352 c0 -7 -134 -126 -196 -175 -21 -17 -23 -17 -49 4 -26 20 -26 22
-10 34 17 12 16 14 -6 23 -14 5 -30 15 -37 23 -10 12 1 17 66 32 42 9 102 28
132 41 55 23 100 31 100 18z m164 -18 c45 -14 91 -31 102 -39 18 -14 16 -18
-46 -83 -36 -38 -75 -80 -87 -95 -20 -24 -91 -51 -275 -104 -15 -5 -18 1 -18
35 0 32 -3 39 -15 35 -23 -9 -18 18 10 59 46 68 198 215 224 216 13 1 60 -10
105 -24z m180 10 c114 -30 286 -113 236 -115 -24 0 -314 102 -330 117 -12 11
-11 13 11 13 14 0 51 -7 83 -15z m357 -87 c34 -40 46 -46 170 -87 146 -48 198
-70 220 -97 12 -15 12 -16 -6 -11 -11 3 -58 17 -105 31 -47 13 -118 34 -157
46 -45 12 -86 32 -107 51 -38 33 -90 111 -101 149 -6 24 -5 23 22 -7 15 -17
44 -51 64 -75z m1180 68 c52 -18 113 -37 137 -41 48 -8 51 -23 7 -44 -24 -12
-26 -15 -11 -23 23 -13 20 -21 -12 -40 -27 -16 -28 -16 -82 29 -75 62 -160
140 -160 147 0 12 30 5 121 -28z m-1466 -77 c79 -29 79 -29 -58 -78 -32 -12
-71 -21 -88 -21 -21 0 -39 -10 -60 -32 -32 -36 -38 -25 -13 25 21 43 114 127
141 127 12 0 47 -9 78 -21z m-766 -49 c33 -17 71 -44 85 -61 23 -27 26 -39 26
-110 0 -62 -3 -79 -14 -79 -18 0 -46 38 -46 62 0 17 -17 34 -26 25 -3 -3 2
-21 10 -42 14 -34 14 -36 -2 -33 -9 2 -29 29 -44 60 -19 40 -39 65 -65 81 -62
38 -70 40 -33 8 19 -17 37 -31 41 -31 14 0 41 -72 31 -82 -6 -6 -16 6 -27 34
-13 29 -20 37 -22 25 -4 -15 -6 -16 -26 -2 -12 8 -34 15 -50 15 -16 0 -37 5
-48 10 -20 11 -28 -3 -9 -15 35 -22 -16 -34 -65 -15 -30 11 -39 31 -31 65 6
25 36 35 36 13 0 -7 9 -2 19 11 13 16 25 22 39 19 14 -4 22 0 25 13 6 22 46
26 80 8 21 -12 21 -11 5 8 -10 11 -18 22 -18 26 0 5 25 12 57 16 7 0 39 -13
72 -29z m1671 -183 c129 -45 204 -79 215 -97 9 -15 -25 -5 -188 52 -159 55
-177 64 -197 92 -8 12 -31 39 -50 61 -76 85 -69 96 11 18 84 -83 85 -83 209
-126z m920 196 c0 -3 -8 -15 -17 -26 -17 -19 -17 -20 4 -8 34 18 74 14 80 -8
3 -13 11 -17 25 -13 13 3 26 -1 32 -10 6 -8 22 -15 36 -14 20 1 26 -4 28 -27
2 -16 -2 -34 -8 -42 -11 -14 -87 -31 -96 -22 -3 3 3 18 13 33 l18 28 -25 -17
c-13 -9 -39 -17 -57 -17 -17 0 -35 -5 -39 -11 -3 -6 -17 -8 -29 -5 -20 5 -25
1 -35 -29 -13 -38 -35 -49 -25 -12 9 31 27 67 35 67 3 0 21 14 40 30 l35 31
-53 -32 c-44 -26 -59 -42 -81 -88 -14 -31 -34 -57 -43 -59 -16 -3 -16 -1 -2
33 16 38 14 52 -5 40 -6 -3 -11 -17 -11 -30 0 -21 -32 -55 -52 -55 -5 0 -8 37
-8 83 0 78 2 85 28 109 61 57 104 78 159 78 29 0 53 -3 53 -7z m-1570 -73 c0
-6 -24 -34 -52 -64 -51 -51 -59 -55 -209 -105 -86 -28 -165 -51 -175 -51 -30
1 81 55 186 90 122 41 158 60 197 104 31 35 53 46 53 26z m112 -35 c-3 -10
-44 -27 -97 -39 l-30 -6 33 30 c26 24 41 30 65 28 18 -2 31 -7 29 -13z m-1379
-87 c28 -14 11 -23 -44 -23 -38 0 -49 4 -49 16 0 9 3 19 7 23 8 8 59 -2 86
-16z m3045 -4 c2 -16 -4 -19 -45 -19 -61 0 -70 15 -18 30 49 16 59 14 63 -11z
m-2948 -35 c0 -5 -7 -9 -15 -9 -15 0 -20 12 -9 23 8 8 24 -1 24 -14z m2790 0
c0 -5 -7 -9 -15 -9 -15 0 -20 12 -9 23 8 8 24 -1 24 -14z m-2928 -37 c-1 -7 5
-15 13 -18 11 -5 12 -11 4 -25 -14 -26 -34 -24 -47 6 -19 40 -15 57 11 53 12
-2 21 -9 19 -16z m731 -34 c-20 -34 -69 -75 -79 -65 -3 3 16 31 42 61 51 57
70 59 37 4z m1642 -40 c19 -18 24 -28 14 -28 -25 0 -58 29 -79 70 -27 54 -24
62 8 20 15 -19 40 -47 57 -62z m705 78 c0 -28 -20 -66 -34 -66 -23 0 -29 18
-14 50 13 31 48 42 48 16z m-80 -36 c0 -21 -16 -35 -47 -43 -28 -6 -29 2 -2
48 17 28 24 33 35 24 8 -6 14 -19 14 -29z m-2906 -5 c22 -41 16 -53 -19 -37
-28 13 -40 34 -31 57 9 25 30 17 50 -20z m170 -1 c12 -30 6 -34 -52 -34 -47 0
-59 4 -70 21 -13 20 -12 21 27 14 23 -4 48 -2 58 4 25 14 30 14 37 -5z m148
-1 c24 -21 23 -34 -7 -93 -31 -61 -65 -69 -90 -20 -19 37 -19 50 0 50 9 0 21
-11 27 -25 20 -45 31 -28 25 40 -5 56 -4 65 10 65 9 0 25 -7 35 -17z m2266 -8
c-3 -14 -1 -25 4 -25 5 0 2 -13 -6 -28 -10 -19 -11 -33 -5 -43 8 -12 10 -12
19 1 5 8 10 21 10 28 0 6 11 12 25 12 l25 0 -20 -40 c-16 -32 -26 -40 -48 -40
-30 0 -52 32 -66 96 -8 36 12 64 46 64 16 0 19 -5 16 -25z m185 12 c26 1 47 0
47 -2 0 -2 -7 -11 -16 -19 -10 -11 -34 -16 -70 -16 -46 0 -54 3 -54 18 0 25
11 34 29 25 9 -4 37 -7 64 -6z m-23 -95 c0 -13 -23 -32 -39 -32 -11 0 -10 4 4
20 19 21 35 26 35 12z m54 -17 c-4 -8 -13 -15 -21 -15 -13 0 -13 3 -3 15 7 8
16 15 21 15 5 0 6 -7 3 -15z m52 -44 c20 16 18 -5 -2 -25 -17 -18 -51 -21 -73
-7 -11 7 -7 14 20 30 29 18 34 19 37 5 3 -12 7 -13 18 -3z m-2794 -2 c27 -15
22 -39 -8 -39 -31 0 -64 17 -64 33 0 15 48 19 72 6z"/>
<path d="M2070 2268 c-21 -35 -27 -92 -9 -86 10 3 28 42 46 101 9 29 -16 19
-37 -15z"/>
<path d="M2515 2135 c-20 -95 -19 -89 -6 -93 12 -4 41 87 34 106 -8 20 -22 14
-28 -13z"/>
<path d="M4250 2298 c0 -2 9 -28 19 -58 19 -52 50 -78 43 -35 -5 31 -36 88
-49 93 -7 2 -13 2 -13 0z"/>
<path d="M3526 1458 c-7 -13 -57 -102 -109 -198 -198 -364 -245 -445 -258
-445 -15 0 -78 107 -249 423 -69 127 -129 232 -135 232 -39 0 -32 -21 68 -206
57 -104 136 -250 177 -324 115 -211 120 -220 135 -220 7 0 22 12 33 28 28 39
392 710 392 722 0 19 -40 10 -54 -12z"/>
<path d="M3637 1403 c-13 -21 -45 -78 -72 -128 -26 -49 -81 -148 -120 -220
-40 -71 -113 -204 -162 -295 -101 -186 -115 -210 -125 -210 -7 0 -146 245
-350 620 -77 140 -141 256 -143 258 -5 5 -125 -35 -145 -48 -18 -11 -15 -18
230 -450 92 -162 195 -349 228 -415 72 -142 111 -185 174 -192 81 -9 71 -24
503 767 64 118 128 234 141 257 l24 41 -68 23 c-37 12 -72 24 -79 26 -6 3 -22
-13 -36 -34z"/>
<path d="M2970 1393 l0 -38 21 33 c12 17 25 32 30 32 15 0 11 -157 -3 -163 -7
-3 12 -6 42 -6 42 -1 51 2 42 11 -14 14 -17 158 -3 158 5 0 19 -12 30 -27 l20
-28 1 28 c0 33 15 35 31 5 7 -13 28 -47 47 -76 29 -44 33 -56 21 -63 -9 -6 0
-9 29 -9 23 0 42 3 42 6 0 4 -14 29 -30 56 -25 40 -29 53 -19 64 10 12 9 13
-4 8 -19 -7 -44 32 -24 39 6 3 -52 6 -130 6 l-143 1 0 -37z"/>
<path d="M3278 1423 c6 -2 9 -10 5 -16 -4 -7 2 -5 13 3 10 8 21 16 23 17 2 2
-9 3 -25 2 -16 0 -23 -3 -16 -6z"/>
<path d="M3160 1260 c-12 -8 -9 -10 13 -10 16 0 26 4 22 10 -8 12 -16 12 -35
0z"/>
</g>
</svg>
